{"title":"When.We.Leave.aka.Die.Fremde.2010.CUSTOM.SWESUB.XviD.AC3(5.1)-Ze","uid":5891092,"size":1466831770,"categoryP":"video","categoryS":"movies","magnet":"?xt=urn:btih:d47dc571011d86c618d8b087a8ae34e58ff3dd43&amp;dn=When.We.Leave.aka.Die.Fremde.2010.CUSTOM.SWESUB.XviD.AC3%285.1%29-Ze&amp;tr=udp%3A%2F%2Ftracker.openbittorrent.com%3A80&amp;tr=udp%3A%2F%2Fopen.demonii.com%3A1337&amp;tr=udp%3A%2F%2Ftracker.coppersurfer.tk%3A6969&amp;tr=udp%3A%2F%2Fexodus.desync.com%3A6969","seeders":0,"leechers":1,"uploader":"Zen_Bud","files":-1,"time":1287253213,"description":"\nWhen.We.Leave.aka.Die.Fremde.2010.CUSTOM.SWESUB.XviD.AC3(5.1)-Zen_Bud\n\n\nFormat                           : AVI\nFile size                        : 1.37 GiB\nDuration                         : 1h 59mn\nOverall bit rate                 : 1 637 Kbps\n\nVideo\n\nFormat                           : MPEG-4 Visual\nCodec ID/Hint                    : XviD\nDuration                         : 1h 59mn\nBit rate                         : 1 178 Kbps\nWidth                            : 720 pixels\nHeight                           : 412 pixels\nDisplay aspect ratio             : 2.071\nStream size                      : 1 007 MiB (72%)\nWriting library                  : XviD 1.1.2 (UTC 2006-11-01)\n\nAudio\n\nFormat                           : AC-3\nDuration                         : 1h 59mn\nBit rate                         : 448 Kbps\nChannel(s)                       : 6 channels\nChannel positions                : Front: L C R, Side: L R, LFE\nSampling rate                    : 48.0 KHz\nBit depth                        : 16 bits\nStream size                      : 383 MiB (27%)\nLanguage:                        : German and Turkish !!\n\n\n********* For the sub THX to: &quot;Simontax&quot; http://swesub.nu/news.php ***********","torrent":{"xt":"urn:btih:d47dc571011d86c618d8b087a8ae34e58ff3dd43","amp;dn":"When.We.Leave.aka.Die.Fremde.2010.CUSTOM.SWESUB.XviD.AC3%285.1%29-Ze","amp;tr":["udp%3A%2F%2Ftracker.openbittorrent.com%3A80","udp%3A%2F%2Fopen.demonii.com%3A1337","udp%3A%2F%2Ftracker.coppersurfer.tk%3A6969","udp%3A%2F%2Fexodus.desync.com%3A6969"],"infoHash":"d47dc571011d86c618d8b087a8ae34e58ff3dd43","infoHashBuffer":{"type":"Buffer","data":[212,125,197,113,1,29,134,198,24,216,176,135,168,174,52,229,143,243,221,67]},"announce":[],"urlList":[]}}